<svg width="850" height="380" viewBox="0 0 850 380" fill="none" xmlns="http://www.w3.org/2000/svg">
<mask id="path-1-inside-1_2_236" fill="white">
<path d="M51 20C51 8.9543 59.9543 0 71 0H779C790.046 0 799 8.95431 799 20V300H51V20Z"/>
</mask>
<path d="M51 20C51 8.9543 59.9543 0 71 0H779C790.046 0 799 8.95431 799 20V300H51V20Z" fill="url(#paint0_linear_2_236)"/>
<path d="M50 20C50 8.40202 59.402 -1 71 -1H779C790.598 -1 800 8.40202 800 20H798C798 9.50659 789.493 1 779 1H71C60.5066 1 52 9.50659 52 20H50ZM799 300H51H799ZM50 300V20C50 8.40202 59.402 -1 71 -1V1C60.5066 1 52 9.50659 52 20V300H50ZM779 -1C790.598 -1 800 8.40202 800 20V300H798V20C798 9.50659 789.493 1 779 1V-1Z" fill="black" fill-opacity="0.1" mask="url(#path-1-inside-1_2_236)"/>
<rect x="355.607" y="59.17" width="137" height="50" rx="10" transform="rotate(-3 355.607 59.17)" fill="#482307"/>
<path d="M379.414 93.3616C377.718 93.4504 376.006 93.222 374.277 92.6763C372.548 92.1306 371.079 91.3679 369.87 90.3882L372.232 86.4936C373.191 87.2883 374.293 87.9137 375.538 88.3701C376.792 88.8155 377.996 89.0079 379.151 88.9474C380.17 88.894 381.023 88.6459 381.709 88.2031C382.406 87.7598 382.737 87.2209 382.704 86.5863C382.691 86.3367 382.627 86.1157 382.513 85.9235C382.408 85.7204 382.232 85.5419 381.984 85.388C381.747 85.2335 381.516 85.1048 381.291 85.0018C381.076 84.8879 380.758 84.7794 380.335 84.6764C379.912 84.563 379.569 84.4819 379.305 84.4331C379.052 84.3734 378.662 84.2947 378.135 84.1972C372.932 83.2286 370.239 81.0175 370.058 77.5639C369.955 75.5874 370.651 73.955 372.149 72.6665C373.646 71.3781 375.669 70.6671 378.217 70.5335C379.85 70.4479 381.356 70.6194 382.735 71.0478C384.124 71.4757 385.266 72.073 386.161 72.8397L384.05 76.7368C383.373 76.1568 382.52 75.7008 381.49 75.3688C380.461 75.0368 379.437 74.8975 378.417 74.951C377.429 75.0028 376.628 75.2325 376.013 75.6403C375.397 76.0376 375.105 76.5275 375.135 77.1101C375.153 77.4534 375.279 77.7597 375.512 78.0291C375.745 78.2985 376.07 78.5214 376.486 78.6978C376.912 78.8737 377.342 79.018 377.776 79.1309C378.22 79.2432 378.726 79.3419 379.293 79.4269C379.683 79.4899 380.046 79.5595 380.384 79.6357C380.721 79.7015 381.187 79.8231 381.78 80.0007C382.373 80.1678 382.91 80.3587 383.39 80.5734C383.87 80.7777 384.386 81.0584 384.936 81.4155C385.487 81.7622 385.95 82.1499 386.327 82.5787C386.714 82.9965 387.044 83.5112 387.316 84.1228C387.587 84.724 387.741 85.3783 387.779 86.0857C387.848 87.4068 387.525 88.6128 386.81 89.7038C386.095 90.7844 385.092 91.6454 383.801 92.2867C382.509 92.9177 381.047 93.276 379.414 93.3616ZM390.815 92.3729L389.659 70.325L394.621 70.065L395.777 92.1128L390.815 92.3729ZM416.638 68.9111L422.677 68.5947L423.832 90.6425L418.886 90.9018L418.144 76.7493L413.121 87.48L410.312 87.6272L404.21 77.4795L404.952 91.632L399.99 91.892L398.834 69.8442L404.967 69.5228L411.357 80.1091L416.638 68.9111ZM436.704 67.8595C438.91 67.7439 440.788 68.3652 442.341 69.7233C443.893 71.071 444.725 72.8163 444.837 74.9592C444.949 77.1021 444.304 78.93 442.903 80.443C441.5 81.9455 439.696 82.7546 437.491 82.8701L432.638 83.1245L433.007 90.1617L428.045 90.4217L426.89 68.3739L436.704 67.8595ZM437.153 78.2096C437.933 78.1687 438.569 77.8642 439.061 77.296C439.562 76.7168 439.792 76.0268 439.75 75.2258C439.708 74.4144 439.407 73.7522 438.848 73.239C438.3 72.7254 437.635 72.489 436.855 72.5299L432.096 72.7793L432.394 78.459L437.153 78.2096ZM452.985 84.4364L462.175 83.9548L462.42 88.6202L448.267 89.3619L447.112 67.3141L452.074 67.054L452.985 84.4364ZM469.961 83.5467L480.119 83.0143L480.364 87.6798L465.244 88.4722L464.089 66.4243L479.052 65.6401L479.297 70.3056L469.295 70.8298L469.503 74.7931L478.444 74.3245L478.688 78.99L469.747 79.4586L469.961 83.5467Z" fill="white"/>
<rect x="348.737" y="119.102" width="156" height="50" rx="10" transform="rotate(3 348.737 119.102)" fill="#E15549"/>
<path d="M376.386 138.169L366.868 137.67L366.649 141.851L374.919 142.285L374.674 146.95L366.404 146.517L365.957 155.052L360.995 154.792L362.151 132.744L376.631 133.503L376.386 138.169ZM386.027 138.126L386.989 138.568L388.704 139.581L387.108 141.969L385.394 140.941L384.663 140.261L384.767 141.268L384.668 143.156L381.797 143.005L381.896 141.117L382.135 140.128L381.306 140.726L379.494 141.57L378.187 139.03L380.002 138.139L380.94 137.86L380.04 137.421L378.325 136.408L379.89 134.018L381.635 135.048L382.366 135.728L382.231 134.72L382.33 132.832L385.201 132.982L385.102 134.87L384.894 135.861L385.723 135.263L387.504 134.417L388.842 136.959L387.028 137.834L386.027 138.126ZM400.889 157.274C399.256 157.188 397.731 156.816 396.316 156.158C394.901 155.489 393.705 154.623 392.728 153.56C391.751 152.497 391.003 151.248 390.484 149.813C389.965 148.367 389.747 146.843 389.831 145.241C389.915 143.639 390.291 142.152 390.957 140.778C391.624 139.395 392.499 138.225 393.582 137.27C394.665 136.315 395.944 135.584 397.421 135.078C398.897 134.571 400.452 134.36 402.085 134.446C404.134 134.553 405.984 135.094 407.633 136.067C409.293 137.03 410.608 138.314 411.577 139.919L407.147 142.347C406.59 141.431 405.847 140.693 404.916 140.133C403.986 139.573 402.959 139.264 401.836 139.205C399.963 139.107 398.364 139.659 397.039 140.862C395.715 142.055 395.002 143.603 394.903 145.507C394.803 147.411 395.349 149.03 396.541 150.365C397.734 151.69 399.266 152.401 401.139 152.499C402.273 152.559 403.326 152.364 404.299 151.914C405.283 151.454 406.099 150.798 406.749 149.946L410.901 152.823C409.769 154.318 408.327 155.463 406.575 156.258C404.833 157.043 402.938 157.381 400.889 157.274ZM426.874 158.245L420.607 150.03L418.657 152.009L418.354 157.798L413.392 157.538L414.547 135.49L419.509 135.75L419.011 145.268L427.717 136.18L434.005 136.51L423.993 146.625L433.333 158.583L426.874 158.245ZM434.925 158.667L436.08 136.619L441.042 136.879L439.887 158.927L434.925 158.667ZM459.408 137.841L464.37 138.101L463.214 160.149L458.19 159.886L449.768 145.926L449.062 159.407L444.1 159.147L445.255 137.099L450.248 137.361L458.701 151.323L459.408 137.841ZM478.98 148.317L489.715 148.88L489.626 150.581C489.514 152.724 488.929 154.633 487.871 156.309C486.823 157.986 485.421 159.268 483.664 160.157C481.907 161.035 479.968 161.418 477.846 161.307C476.223 161.222 474.709 160.851 473.304 160.193C471.899 159.525 470.714 158.659 469.747 157.597C468.781 156.534 468.038 155.286 467.519 153.85C467.01 152.405 466.798 150.881 466.882 149.279C466.966 147.677 467.341 146.19 468.008 144.816C468.675 143.433 469.55 142.263 470.632 141.308C471.715 140.353 472.995 139.622 474.471 139.116C475.948 138.609 477.502 138.398 479.136 138.484C481.029 138.583 482.757 139.054 484.319 139.898C485.892 140.731 487.149 141.83 488.089 143.193L484.189 145.962C483.605 145.159 482.861 144.515 481.959 144.03C481.056 143.544 480.063 143.273 478.981 143.217C477.078 143.117 475.453 143.673 474.106 144.886C472.771 146.088 472.053 147.641 471.953 149.545C471.853 151.449 472.404 153.074 473.606 154.42C474.809 155.755 476.357 156.473 478.25 156.572C479.634 156.644 480.864 156.354 481.941 155.701C483.019 155.048 483.765 154.154 484.179 153.018L478.749 152.733L478.98 148.317Z" fill="white"/>
<rect x="341" y="193.026" width="167" height="50" rx="10" transform="rotate(-2 341 193.026)" fill="#482307" fill-opacity="0.5"/>
<path d="M371.48 204.891L371.643 209.56L365.506 209.774L366.113 227.17L361.147 227.343L360.54 209.948L354.403 210.162L354.24 205.493L371.48 204.891ZM375.154 226.854L374.384 204.79L379.35 204.616L380.12 226.681L375.154 226.854ZM401.383 203.847L407.426 203.636L408.197 225.7L403.247 225.873L402.752 211.71L397.542 222.351L394.731 222.45L388.808 212.197L389.302 226.36L384.336 226.534L383.566 204.469L389.703 204.255L395.908 214.951L401.383 203.847ZM417.216 220.711L427.381 220.356L427.544 225.025L412.413 225.553L411.643 203.488L426.618 202.966L426.781 207.635L416.771 207.984L416.91 211.95L425.857 211.638L426.021 216.307L417.073 216.619L417.216 220.711ZM435.704 220.065L444.902 219.744L445.065 224.413L430.902 224.907L430.131 202.843L435.097 202.669L435.704 220.065ZM447.891 224.314L447.121 202.25L452.087 202.076L452.857 224.141L447.891 224.314ZM470.466 201.434L475.432 201.261L476.202 223.326L471.174 223.501L461.568 210.328L462.039 223.82L457.073 223.994L456.303 201.929L461.3 201.754L470.937 214.926L470.466 201.434ZM485.174 218.338L495.34 217.983L495.503 222.652L480.372 223.18L479.601 201.115L494.576 200.592L494.739 205.261L484.73 205.611L484.868 209.577L493.816 209.265L493.979 213.934L485.031 214.246L485.174 218.338Z" fill="white"/>
<path d="M51 300H799V360C799 371.046 790.046 380 779 380H71C59.9543 380 51 371.046 51 360V300Z" fill="url(#paint1_linear_2_236)"/>
<path d="M51.5 300.5H798.5V360C798.5 370.77 789.77 379.5 779 379.5H71C60.2304 379.5 51.5 370.77 51.5 360V300.5Z" stroke="black" stroke-opacity="0.1"/>
<rect x="78" y="327" width="82" height="25" rx="5" fill="#482307" fill-opacity="0.25"/>
<path d="M94.602 337.214C95.3849 337.214 96.0112 337.449 96.4809 337.919C96.9549 338.384 97.1919 339.007 97.1919 339.785V344H95.497V340.331C95.497 339.882 95.3637 339.525 95.0971 339.258C94.8348 338.987 94.4835 338.852 94.0434 338.852C93.5822 338.852 93.2077 338.992 92.9199 339.271C92.6364 339.546 92.4946 339.91 92.4946 340.363V344H90.8061V337.373H92.4946V338.109C93.0278 337.513 93.7303 337.214 94.602 337.214ZM102.549 337.214C103.154 337.214 103.702 337.367 104.193 337.671C104.688 337.972 105.076 338.389 105.355 338.922C105.634 339.451 105.774 340.039 105.774 340.687C105.774 341.334 105.634 341.924 105.355 342.458C105.076 342.986 104.688 343.403 104.193 343.708C103.702 344.008 103.154 344.159 102.549 344.159C101.678 344.159 100.958 343.841 100.391 343.207V346.469H98.7026V337.373H100.391V338.16C100.954 337.53 101.673 337.214 102.549 337.214ZM102.213 342.521C102.738 342.521 103.171 342.347 103.514 342C103.861 341.649 104.035 341.211 104.035 340.687C104.035 340.162 103.861 339.726 103.514 339.379C103.171 339.028 102.738 338.852 102.213 338.852C101.692 338.852 101.259 339.028 100.912 339.379C100.565 339.73 100.391 340.166 100.391 340.687C100.391 341.207 100.565 341.643 100.912 341.994C101.259 342.345 101.692 342.521 102.213 342.521ZM115.01 337.214C115.759 337.214 116.358 337.439 116.806 337.887C117.259 338.336 117.485 338.935 117.485 339.684V344H115.79V340.191C115.79 339.785 115.672 339.461 115.435 339.22C115.202 338.975 114.889 338.852 114.496 338.852C114.081 338.852 113.744 338.977 113.486 339.227C113.228 339.476 113.099 339.806 113.099 340.217V344H111.411V340.191C111.411 339.789 111.29 339.466 111.049 339.22C110.812 338.975 110.494 338.852 110.097 338.852C109.686 338.852 109.352 338.979 109.094 339.233C108.836 339.483 108.707 339.811 108.707 340.217V344H107.018V337.373H108.707V338.059C109.206 337.496 109.86 337.214 110.668 337.214C111.129 337.214 111.538 337.31 111.893 337.5C112.253 337.686 112.538 337.951 112.75 338.293C113.296 337.574 114.049 337.214 115.01 337.214Z" fill="white"/>
<path d="M126.888 335.031H127.98V344H126.444V336.865L124.844 337.76L124.184 336.522L126.888 335.031ZM130.614 344.102C130.322 344.102 130.075 344.004 129.872 343.81C129.673 343.615 129.573 343.372 129.573 343.08C129.573 342.788 129.673 342.542 129.872 342.343C130.075 342.14 130.322 342.039 130.614 342.039C130.91 342.039 131.158 342.14 131.357 342.343C131.556 342.542 131.655 342.788 131.655 343.08C131.655 343.372 131.556 343.615 131.357 343.81C131.158 344.004 130.91 344.102 130.614 344.102ZM133.82 335.031H134.912V344H133.375V336.865L131.776 337.76L131.116 336.522L133.82 335.031ZM137.546 344.102C137.254 344.102 137.006 344.004 136.803 343.81C136.604 343.615 136.505 343.372 136.505 343.08C136.505 342.788 136.604 342.542 136.803 342.343C137.006 342.14 137.254 342.039 137.546 342.039C137.842 342.039 138.09 342.14 138.289 342.343C138.487 342.542 138.587 342.788 138.587 343.08C138.587 343.372 138.487 343.615 138.289 343.81C138.09 344.004 137.842 344.102 137.546 344.102ZM144.757 343.575C144.228 343.964 143.625 344.159 142.948 344.159C142.271 344.159 141.665 343.964 141.132 343.575C140.603 343.181 140.191 342.631 139.895 341.924C139.598 341.218 139.45 340.414 139.45 339.512C139.45 338.611 139.598 337.807 139.895 337.1C140.191 336.393 140.603 335.845 141.132 335.456C141.665 335.067 142.271 334.872 142.948 334.872C143.625 334.872 144.228 335.067 144.757 335.456C145.29 335.845 145.705 336.393 146.001 337.1C146.297 337.807 146.445 338.611 146.445 339.512C146.445 340.414 146.297 341.218 146.001 341.924C145.705 342.631 145.29 343.181 144.757 343.575ZM141.57 341.785C141.93 342.369 142.389 342.661 142.948 342.661C143.506 342.661 143.963 342.369 144.319 341.785C144.679 341.196 144.858 340.439 144.858 339.512C144.858 338.585 144.679 337.83 144.319 337.246C143.963 336.662 143.506 336.37 142.948 336.37C142.389 336.37 141.93 336.662 141.57 337.246C141.215 337.83 141.037 338.585 141.037 339.512C141.037 340.439 141.215 341.196 141.57 341.785Z" fill="white" fill-opacity="0.75"/>
<rect x="170" y="327" width="145" height="25" rx="5" fill="#482307" fill-opacity="0.25"/>
<path d="M190.798 337.214C191.547 337.214 192.146 337.439 192.594 337.887C193.047 338.336 193.273 338.935 193.273 339.684V344H191.579V340.191C191.579 339.785 191.46 339.461 191.223 339.22C190.99 338.975 190.677 338.852 190.284 338.852C189.869 338.852 189.533 338.977 189.274 339.227C189.016 339.476 188.887 339.806 188.887 340.217V344H187.199V340.191C187.199 339.789 187.078 339.466 186.837 339.22C186.6 338.975 186.283 338.852 185.885 338.852C185.474 338.852 185.14 338.979 184.882 339.233C184.624 339.483 184.495 339.811 184.495 340.217V344H182.806V337.373H184.495V338.059C184.994 337.496 185.648 337.214 186.456 337.214C186.917 337.214 187.326 337.31 187.681 337.5C188.041 337.686 188.326 337.951 188.538 338.293C189.084 337.574 189.837 337.214 190.798 337.214ZM196.377 336.091C196.174 336.294 195.922 336.396 195.622 336.396C195.322 336.396 195.068 336.294 194.86 336.091C194.657 335.888 194.556 335.638 194.556 335.342C194.556 335.046 194.657 334.796 194.86 334.593C195.068 334.39 195.322 334.288 195.622 334.288C195.922 334.288 196.174 334.39 196.377 334.593C196.585 334.796 196.688 335.046 196.688 335.342C196.688 335.638 196.585 335.888 196.377 336.091ZM194.778 344V337.373H196.466V344H194.778ZM201.874 337.214C202.657 337.214 203.284 337.449 203.753 337.919C204.227 338.384 204.464 339.007 204.464 339.785V344H202.77V340.331C202.77 339.882 202.636 339.525 202.37 339.258C202.107 338.987 201.756 338.852 201.316 338.852C200.855 338.852 200.48 338.992 200.192 339.271C199.909 339.546 199.767 339.91 199.767 340.363V344H198.079V337.373H199.767V338.109C200.3 337.513 201.003 337.214 201.874 337.214ZM208.032 342.362H211.136V344H205.664V342.762L208.679 339.011H205.715V337.373H211.047V338.604L208.032 342.362ZM214.037 336.091C213.833 336.294 213.582 336.396 213.281 336.396C212.981 336.396 212.727 336.294 212.52 336.091C212.316 335.888 212.215 335.638 212.215 335.342C212.215 335.046 212.316 334.796 212.52 334.593C212.727 334.39 212.981 334.288 213.281 334.288C213.582 334.288 213.833 334.39 214.037 334.593C214.244 334.796 214.348 335.046 214.348 335.342C214.348 335.638 214.244 335.888 214.037 336.091ZM212.437 344V337.373H214.125V344H212.437ZM219.584 337.214C220.19 337.214 220.738 337.367 221.228 337.671C221.724 337.972 222.111 338.389 222.39 338.922C222.669 339.451 222.809 340.039 222.809 340.687C222.809 341.334 222.669 341.924 222.39 342.458C222.111 342.986 221.724 343.403 221.228 343.708C220.738 344.008 220.19 344.159 219.584 344.159C218.713 344.159 217.993 343.841 217.426 343.207V346.469H215.738V337.373H217.426V338.16C217.989 337.53 218.708 337.214 219.584 337.214ZM219.248 342.521C219.773 342.521 220.207 342.347 220.549 342C220.896 341.649 221.07 341.211 221.07 340.687C221.07 340.162 220.896 339.726 220.549 339.379C220.207 339.028 219.773 338.852 219.248 338.852C218.728 338.852 218.294 339.028 217.947 339.379C217.6 339.73 217.426 340.166 217.426 340.687C217.426 341.207 217.6 341.643 217.947 341.994C218.294 342.345 218.728 342.521 219.248 342.521ZM227.9 337.214C228.505 337.214 229.053 337.367 229.544 337.671C230.039 337.972 230.426 338.389 230.706 338.922C230.985 339.451 231.124 340.039 231.124 340.687C231.124 341.334 230.985 341.924 230.706 342.458C230.426 342.986 230.039 343.403 229.544 343.708C229.053 344.008 228.505 344.159 227.9 344.159C227.028 344.159 226.309 343.841 225.742 343.207V346.469H224.053V337.373H225.742V338.16C226.304 337.53 227.024 337.214 227.9 337.214ZM227.563 342.521C228.088 342.521 228.522 342.347 228.865 342C229.212 341.649 229.385 341.211 229.385 340.687C229.385 340.162 229.212 339.726 228.865 339.379C228.522 339.028 228.088 338.852 227.563 338.852C227.043 338.852 226.609 339.028 226.262 339.379C225.915 339.73 225.742 340.166 225.742 340.687C225.742 341.207 225.915 341.643 226.262 341.994C226.609 342.345 227.043 342.521 227.563 342.521ZM238.97 340.699C238.97 340.911 238.957 341.11 238.932 341.296H233.797C233.915 341.715 234.142 342.047 234.476 342.292C234.81 342.538 235.217 342.661 235.695 342.661C236.08 342.661 236.433 342.584 236.755 342.432C237.076 342.276 237.33 342.079 237.517 341.842L238.646 342.832C238.295 343.251 237.859 343.577 237.339 343.81C236.823 344.042 236.258 344.159 235.644 344.159C234.95 344.159 234.322 344.006 233.759 343.702C233.196 343.397 232.756 342.978 232.438 342.445C232.121 341.907 231.962 341.313 231.962 340.661C231.962 340.018 232.115 339.434 232.419 338.909C232.728 338.38 233.151 337.965 233.689 337.665C234.231 337.365 234.829 337.214 235.485 337.214C236.48 337.214 237.309 337.547 237.974 338.211C238.638 338.871 238.97 339.701 238.97 340.699ZM236.545 339.068C236.241 338.818 235.883 338.693 235.473 338.693C235.062 338.693 234.705 338.818 234.4 339.068C234.095 339.313 233.89 339.643 233.784 340.058H237.167C237.062 339.643 236.854 339.313 236.545 339.068ZM245.172 334.637H246.86V344H245.172V343.207C244.592 343.841 243.873 344.159 243.014 344.159C242.091 344.159 241.321 343.826 240.703 343.162C240.085 342.498 239.776 341.673 239.776 340.687C239.776 339.701 240.085 338.875 240.703 338.211C241.321 337.547 242.091 337.214 243.014 337.214C243.877 337.214 244.596 337.53 245.172 338.16V334.637ZM243.337 342.521C243.862 342.521 244.298 342.345 244.645 341.994C244.996 341.643 245.172 341.207 245.172 340.687C245.172 340.166 244.996 339.73 244.645 339.379C244.298 339.028 243.862 338.852 243.337 338.852C242.817 338.852 242.383 339.028 242.036 339.379C241.689 339.73 241.516 340.166 241.516 340.687C241.516 341.207 241.689 341.643 242.036 341.994C242.383 342.345 242.817 342.521 243.337 342.521ZM253.709 344.159C252.635 344.159 251.704 343.82 250.916 343.143L251.735 342.026C252.298 342.517 252.943 342.762 253.671 342.762C254.018 342.762 254.3 342.707 254.516 342.597C254.736 342.487 254.846 342.335 254.846 342.14C254.846 342.034 254.814 341.941 254.75 341.861C254.691 341.78 254.594 341.711 254.458 341.651C254.323 341.592 254.192 341.543 254.065 341.505C253.942 341.467 253.769 341.423 253.544 341.372C253.392 341.338 253.271 341.311 253.183 341.29C253.094 341.268 252.971 341.237 252.814 341.194C252.662 341.148 252.537 341.105 252.44 341.067C252.347 341.029 252.235 340.979 252.103 340.915C251.972 340.847 251.864 340.78 251.78 340.712C251.699 340.644 251.613 340.562 251.52 340.464C251.431 340.367 251.359 340.263 251.304 340.153C251.253 340.043 251.211 339.916 251.177 339.772C251.143 339.629 251.126 339.474 251.126 339.309C251.126 338.856 251.251 338.469 251.5 338.147C251.75 337.826 252.074 337.591 252.472 337.443C252.874 337.291 253.326 337.214 253.83 337.214C254.808 337.214 255.665 337.504 256.401 338.084L255.582 339.214C255.04 338.808 254.469 338.604 253.868 338.604C253.563 338.604 253.314 338.653 253.119 338.75C252.924 338.848 252.827 338.99 252.827 339.176C252.827 339.282 252.857 339.375 252.916 339.455C252.975 339.531 253.073 339.599 253.208 339.658C253.343 339.713 253.475 339.76 253.602 339.798C253.728 339.832 253.904 339.872 254.128 339.918C254.323 339.961 254.48 339.997 254.598 340.026C254.717 340.056 254.871 340.103 255.061 340.166C255.252 340.229 255.406 340.293 255.525 340.356C255.648 340.42 255.779 340.507 255.918 340.617C256.062 340.722 256.174 340.837 256.255 340.959C256.335 341.082 256.403 341.232 256.458 341.41C256.517 341.588 256.547 341.78 256.547 341.988C256.547 342.441 256.42 342.834 256.166 343.168C255.912 343.503 255.574 343.752 255.15 343.917C254.727 344.078 254.247 344.159 253.709 344.159ZM259.283 336.091C259.08 336.294 258.828 336.396 258.527 336.396C258.227 336.396 257.973 336.294 257.766 336.091C257.562 335.888 257.461 335.638 257.461 335.342C257.461 335.046 257.562 334.796 257.766 334.593C257.973 334.39 258.227 334.288 258.527 334.288C258.828 334.288 259.08 334.39 259.283 334.593C259.49 334.796 259.594 335.046 259.594 335.342C259.594 335.638 259.49 335.888 259.283 336.091ZM257.683 344V337.373H259.372V344H257.683ZM263.04 342.362H266.145V344H260.673V342.762L263.688 339.011H260.724V337.373H266.056V338.604L263.04 342.362ZM273.781 340.699C273.781 340.911 273.768 341.11 273.743 341.296H268.607C268.726 341.715 268.952 342.047 269.287 342.292C269.621 342.538 270.027 342.661 270.505 342.661C270.89 342.661 271.244 342.584 271.565 342.432C271.887 342.276 272.141 342.079 272.327 341.842L273.457 342.832C273.106 343.251 272.67 343.577 272.149 343.81C271.633 344.042 271.068 344.159 270.455 344.159C269.761 344.159 269.132 344.006 268.569 343.702C268.006 343.397 267.566 342.978 267.249 342.445C266.932 341.907 266.773 341.313 266.773 340.661C266.773 340.018 266.925 339.434 267.23 338.909C267.539 338.38 267.962 337.965 268.499 337.665C269.041 337.365 269.64 337.214 270.296 337.214C271.29 337.214 272.12 337.547 272.784 338.211C273.449 338.871 273.781 339.701 273.781 340.699ZM271.356 339.068C271.051 338.818 270.694 338.693 270.283 338.693C269.873 338.693 269.515 338.818 269.21 339.068C268.906 339.313 268.7 339.643 268.595 340.058H271.978C271.872 339.643 271.665 339.313 271.356 339.068Z" fill="white"/>
<path d="M285.446 339.296C285.916 339.508 286.284 339.811 286.551 340.204C286.822 340.598 286.957 341.044 286.957 341.543C286.957 342.305 286.648 342.931 286.03 343.422C285.417 343.913 284.623 344.159 283.65 344.159C283.015 344.159 282.41 344.047 281.834 343.822C281.259 343.598 280.776 343.285 280.387 342.883L281.289 341.753C281.564 342.041 281.902 342.265 282.304 342.426C282.706 342.582 283.121 342.661 283.548 342.661C284.082 342.661 284.517 342.536 284.856 342.286C285.199 342.032 285.37 341.711 285.37 341.321C285.37 340.932 285.205 340.612 284.875 340.363C284.549 340.109 284.132 339.982 283.624 339.982H282.317V338.643H283.624C284.065 338.643 284.429 338.537 284.716 338.325C285.004 338.114 285.148 337.843 285.148 337.513C285.148 337.183 284.991 336.91 284.678 336.694C284.365 336.478 283.963 336.37 283.472 336.37C283.104 336.37 282.746 336.436 282.399 336.567C282.057 336.698 281.773 336.88 281.549 337.113L280.717 335.989C281.068 335.638 281.506 335.365 282.031 335.17C282.556 334.972 283.102 334.872 283.669 334.872C284.57 334.872 285.307 335.101 285.878 335.558C286.449 336.01 286.735 336.588 286.735 337.291C286.735 337.722 286.621 338.114 286.392 338.465C286.164 338.816 285.848 339.093 285.446 339.296ZM292.575 344L290.467 341.556L289.769 342.312V344H288.309V334.637H289.769V340.363L292.511 337.373H294.409L291.496 340.464L294.498 344H292.575ZM299.113 337.214C299.722 337.214 300.276 337.367 300.776 337.671C301.275 337.972 301.667 338.389 301.95 338.922C302.234 339.451 302.375 340.039 302.375 340.687C302.375 341.334 302.234 341.924 301.95 342.458C301.667 342.986 301.275 343.403 300.776 343.708C300.276 344.008 299.722 344.159 299.113 344.159C298.63 344.159 298.19 344.061 297.792 343.867C297.395 343.672 297.056 343.395 296.777 343.035V344H295.317V334.637H296.777V338.332C297.052 337.976 297.388 337.701 297.786 337.506C298.188 337.312 298.63 337.214 299.113 337.214ZM297.361 342.159C297.754 342.553 298.243 342.75 298.827 342.75C299.411 342.75 299.898 342.553 300.287 342.159C300.676 341.761 300.871 341.271 300.871 340.687C300.871 340.103 300.676 339.612 300.287 339.214C299.898 338.816 299.411 338.617 298.827 338.617C298.243 338.617 297.754 338.816 297.361 339.214C296.971 339.612 296.777 340.103 296.777 340.687C296.777 341.271 296.971 341.761 297.361 342.159Z" fill="white" fill-opacity="0.75"/>
<rect x="0.470428" y="125.998" width="120" height="50" rx="20" transform="rotate(-20 0.470428 125.998)" fill="#E15549" fill-opacity="0.5"/>
<rect x="62.2159" y="169.754" width="180" height="50" rx="20" transform="rotate(-20 62.2159 169.754)" fill="#E15549" fill-opacity="0.75"/>
<rect x="686.934" y="50" width="120" height="50" rx="20" transform="rotate(20 686.934 50)" fill="#E15549" fill-opacity="0.95"/>
<rect x="737.217" y="135.332" width="97" height="20" rx="10" transform="rotate(20 737.217 135.332)" fill="#E15549"/>
<rect x="728.667" y="158.825" width="71" height="20" rx="10" transform="rotate(20 728.667 158.825)" fill="#E15549" fill-opacity="0.5"/>
<defs>
<linearGradient id="paint0_linear_2_236" x1="425" y1="0" x2="425" y2="804.661" gradientUnits="userSpaceOnUse">
<stop stop-color="#FFDA92" stop-opacity="0.33"/>
<stop offset="1" stop-color="white" stop-opacity="0"/>
</linearGradient>
<linearGradient id="paint1_linear_2_236" x1="425" y1="300" x2="425" y2="514.576" gradientUnits="userSpaceOnUse">
<stop stop-color="#A97C24" stop-opacity="0.15"/>
<stop offset="1" stop-color="white" stop-opacity="0"/>
</linearGradient>
</defs>
</svg>
