<svg width="850" height="380" viewBox="0 0 850 380" fill="none" xmlns="http://www.w3.org/2000/svg">
<mask id="path-1-inside-1_2_236" fill="white">
<path d="M51 20C51 8.9543 59.9543 0 71 0H779C790.046 0 799 8.95431 799 20V300H51V20Z"/>
</mask>
<path d="M51 20C51 8.9543 59.9543 0 71 0H779C790.046 0 799 8.95431 799 20V300H51V20Z" fill="url(#paint0_linear_2_236)"/>
<path d="M50 20C50 8.40202 59.402 -1 71 -1H779C790.598 -1 800 8.40202 800 20H798C798 9.50659 789.493 1 779 1H71C60.5066 1 52 9.50659 52 20H50ZM799 300H51H799ZM50 300V20C50 8.40202 59.402 -1 71 -1V1C60.5066 1 52 9.50659 52 20V300H50ZM779 -1C790.598 -1 800 8.40202 800 20V300H798V20C798 9.50659 789.493 1 779 1V-1Z" fill="black" fill-opacity="0.1" mask="url(#path-1-inside-1_2_236)"/>
<rect x="355.607" y="62.17" width="137" height="50" rx="10" transform="rotate(-3 355.607 62.17)" fill="#482307"/>
<path d="M379.414 96.3616C377.718 96.4504 376.006 96.222 374.277 95.6763C372.548 95.1306 371.079 94.3679 369.87 93.3882L372.232 89.4936C373.191 90.2883 374.293 90.9137 375.538 91.3701C376.792 91.8155 377.996 92.0079 379.151 91.9474C380.17 91.894 381.023 91.6459 381.709 91.2031C382.406 90.7598 382.737 90.2209 382.704 89.5863C382.691 89.3367 382.627 89.1157 382.513 88.9235C382.408 88.7204 382.232 88.5419 381.984 88.388C381.747 88.2335 381.516 88.1048 381.291 88.0018C381.077 87.8879 380.758 87.7794 380.335 87.6764C379.912 87.563 379.569 87.4819 379.305 87.4331C379.052 87.3734 378.662 87.2947 378.135 87.1972C372.932 86.2286 370.239 84.0175 370.058 80.5639C369.955 78.5874 370.651 76.955 372.149 75.6665C373.646 74.3781 375.669 73.6671 378.217 73.5335C379.85 73.4479 381.356 73.6194 382.735 74.0478C384.124 74.4757 385.266 75.073 386.161 75.8397L384.05 79.7368C383.373 79.1568 382.52 78.7008 381.49 78.3688C380.461 78.0368 379.437 77.8975 378.417 77.951C377.429 78.0028 376.628 78.2325 376.013 78.6403C375.397 79.0376 375.105 79.5275 375.135 80.1101C375.153 80.4534 375.279 80.7597 375.512 81.0291C375.745 81.2985 376.07 81.5214 376.486 81.6978C376.912 81.8737 377.342 82.018 377.776 82.1309C378.22 82.2432 378.726 82.3419 379.293 82.4269C379.683 82.4899 380.046 82.5595 380.384 82.6357C380.721 82.7015 381.187 82.8231 381.78 83.0007C382.373 83.1678 382.91 83.3587 383.39 83.5734C383.87 83.7777 384.386 84.0584 384.937 84.4155C385.487 84.7622 385.95 85.1499 386.327 85.5787C386.714 85.9965 387.044 86.5112 387.316 87.1228C387.587 87.724 387.742 88.3783 387.779 89.0857C387.848 90.4068 387.525 91.6128 386.81 92.7038C386.095 93.7844 385.092 94.6454 383.801 95.2867C382.509 95.9177 381.047 96.276 379.414 96.3616ZM390.815 95.3729L389.659 73.325L394.621 73.065L395.777 95.1128L390.815 95.3729ZM416.638 71.9111L422.677 71.5947L423.832 93.6425L418.886 93.9018L418.144 79.7493L413.121 90.48L410.312 90.6272L404.21 80.4795L404.952 94.632L399.99 94.892L398.834 72.8442L404.967 72.5228L411.357 83.1091L416.638 71.9111ZM436.704 70.8595C438.91 70.7439 440.788 71.3652 442.341 72.7233C443.893 74.071 444.725 75.8163 444.837 77.9592C444.949 80.1021 444.304 81.93 442.903 83.443C441.5 84.9455 439.696 85.7546 437.491 85.8701L432.638 86.1245L433.007 93.1617L428.045 93.4217L426.89 71.3739L436.704 70.8595ZM437.153 81.2096C437.933 81.1687 438.569 80.8642 439.061 80.296C439.562 79.7168 439.792 79.0268 439.75 78.2258C439.708 77.4144 439.407 76.7522 438.848 76.239C438.3 75.7254 437.635 75.489 436.855 75.5299L432.096 75.7793L432.394 81.459L437.153 81.2096ZM452.985 87.4364L462.175 86.9548L462.42 91.6202L448.267 92.3619L447.112 70.3141L452.074 70.054L452.985 87.4364ZM469.961 86.5467L480.119 86.0143L480.364 90.6798L465.244 91.4722L464.089 69.4243L479.052 68.6401L479.297 73.3056L469.295 73.8298L469.503 77.7931L478.444 77.3245L478.688 81.99L469.747 82.4586L469.961 86.5467Z" fill="white"/>
<rect x="348.737" y="122.102" width="156" height="50" rx="10" transform="rotate(3 348.737 122.102)" fill="#E15549"/>
<path d="M376.386 141.169L366.868 140.67L366.649 144.851L374.919 145.285L374.674 149.95L366.404 149.517L365.957 158.052L360.995 157.792L362.151 135.744L376.631 136.503L376.386 141.169ZM386.027 141.126L386.989 141.568L388.704 142.581L387.108 144.969L385.394 143.941L384.663 143.261L384.767 144.268L384.668 146.156L381.797 146.005L381.896 144.117L382.135 143.128L381.306 143.726L379.494 144.57L378.187 142.03L380.002 141.139L380.94 140.86L380.04 140.421L378.325 139.408L379.89 137.018L381.635 138.048L382.366 138.728L382.231 137.72L382.33 135.832L385.201 135.982L385.102 137.87L384.894 138.861L385.723 138.263L387.504 137.417L388.842 139.959L387.028 140.834L386.027 141.126ZM400.889 160.274C399.256 160.188 397.731 159.816 396.316 159.158C394.901 158.489 393.705 157.623 392.728 156.56C391.751 155.497 391.003 154.248 390.484 152.813C389.965 151.367 389.747 149.843 389.831 148.241C389.915 146.639 390.291 145.152 390.957 143.778C391.624 142.395 392.499 141.225 393.582 140.27C394.665 139.315 395.944 138.584 397.421 138.078C398.897 137.571 400.452 137.36 402.085 137.446C404.134 137.553 405.984 138.094 407.633 139.067C409.293 140.03 410.608 141.314 411.577 142.919L407.147 145.347C406.59 144.431 405.847 143.693 404.916 143.133C403.986 142.573 402.959 142.264 401.836 142.205C399.963 142.107 398.364 142.659 397.039 143.862C395.715 145.055 395.002 146.603 394.903 148.507C394.803 150.411 395.349 152.03 396.541 153.365C397.734 154.69 399.267 155.401 401.139 155.499C402.273 155.559 403.326 155.364 404.299 154.914C405.283 154.454 406.099 153.798 406.749 152.946L410.901 155.823C409.769 157.318 408.327 158.463 406.575 159.258C404.833 160.043 402.938 160.381 400.889 160.274ZM426.874 161.245L420.607 153.03L418.657 155.009L418.354 160.798L413.392 160.538L414.548 138.49L419.509 138.75L419.011 148.268L427.717 139.18L434.005 139.51L423.993 149.625L433.333 161.583L426.874 161.245ZM434.925 161.667L436.08 139.619L441.042 139.879L439.887 161.927L434.925 161.667ZM459.408 140.841L464.37 141.101L463.214 163.149L458.19 162.886L449.768 148.926L449.062 162.407L444.1 162.147L445.255 140.099L450.249 140.361L458.701 154.323L459.408 140.841ZM478.98 151.317L489.715 151.88L489.626 153.581C489.514 155.724 488.929 157.633 487.871 159.309C486.823 160.986 485.421 162.268 483.664 163.157C481.907 164.035 479.968 164.418 477.846 164.307C476.223 164.222 474.709 163.851 473.304 163.193C471.899 162.525 470.714 161.659 469.747 160.597C468.781 159.534 468.038 158.286 467.519 156.85C467.01 155.405 466.798 153.881 466.882 152.279C466.966 150.677 467.341 149.19 468.008 147.816C468.675 146.433 469.55 145.263 470.632 144.308C471.715 143.353 472.995 142.622 474.471 142.116C475.948 141.609 477.502 141.398 479.136 141.484C481.029 141.583 482.757 142.054 484.319 142.898C485.892 143.731 487.149 144.83 488.089 146.193L484.189 148.962C483.605 148.159 482.862 147.515 481.959 147.03C481.056 146.544 480.063 146.273 478.981 146.217C477.078 146.117 475.453 146.673 474.106 147.886C472.771 149.088 472.053 150.641 471.953 152.545C471.853 154.449 472.404 156.074 473.607 157.42C474.809 158.755 476.357 159.473 478.25 159.572C479.634 159.644 480.864 159.354 481.941 158.701C483.019 158.048 483.765 157.154 484.179 156.018L478.749 155.733L478.98 151.317Z" fill="white"/>
<rect x="341" y="196.026" width="167" height="50" rx="10" transform="rotate(-2 341 196.026)" fill="#482307" fill-opacity="0.5"/>
<path d="M371.48 207.891L371.643 212.56L365.506 212.774L366.113 230.17L361.147 230.343L360.54 212.948L354.403 213.162L354.24 208.493L371.48 207.891ZM375.155 229.854L374.384 207.79L379.35 207.616L380.12 229.681L375.155 229.854ZM401.383 206.847L407.426 206.636L408.197 228.7L403.247 228.873L402.752 214.71L397.542 225.351L394.731 225.45L388.808 215.197L389.302 229.36L384.336 229.534L383.566 207.469L389.703 207.255L395.908 217.951L401.383 206.847ZM417.216 223.711L427.381 223.356L427.544 228.025L412.413 228.553L411.643 206.488L426.618 205.966L426.781 210.635L416.771 210.984L416.91 214.95L425.857 214.638L426.021 219.307L417.073 219.619L417.216 223.711ZM435.704 223.065L444.902 222.744L445.065 227.413L430.902 227.907L430.131 205.843L435.097 205.669L435.704 223.065ZM447.891 227.314L447.121 205.25L452.087 205.076L452.857 227.141L447.891 227.314ZM470.466 204.434L475.432 204.261L476.202 226.326L471.174 226.501L461.568 213.328L462.039 226.82L457.073 226.994L456.303 204.929L461.3 204.754L470.937 217.926L470.466 204.434ZM485.174 221.338L495.34 220.983L495.503 225.652L480.372 226.18L479.601 204.115L494.576 203.592L494.739 208.261L484.73 208.611L484.868 212.577L493.816 212.265L493.979 216.934L485.031 217.246L485.174 221.338Z" fill="white"/>
<path d="M51 300H799V360C799 371.046 790.046 380 779 380H71C59.9543 380 51 371.046 51 360V300Z" fill="url(#paint1_linear_2_236)"/>
<path d="M51.5 300.5H798.5V360C798.5 370.77 789.77 379.5 779 379.5H71C60.2304 379.5 51.5 370.77 51.5 360V300.5Z" stroke="black" stroke-opacity="0.1"/>
<rect x="78" y="327" width="85" height="25" rx="5" fill="#482307" fill-opacity="0.25"/>
<path d="M94.602 337.214C95.3849 337.214 96.0112 337.449 96.4809 337.919C96.9549 338.384 97.1919 339.007 97.1919 339.785V344H95.497V340.331C95.497 339.882 95.3637 339.525 95.0971 339.258C94.8348 338.987 94.4835 338.852 94.0434 338.852C93.5822 338.852 93.2077 338.992 92.9199 339.271C92.6364 339.546 92.4946 339.91 92.4946 340.363V344H90.8061V337.373H92.4946V338.109C93.0278 337.513 93.7303 337.214 94.602 337.214ZM102.549 337.214C103.154 337.214 103.702 337.367 104.193 337.671C104.688 337.972 105.076 338.389 105.355 338.922C105.634 339.451 105.774 340.039 105.774 340.687C105.774 341.334 105.634 341.924 105.355 342.458C105.076 342.986 104.688 343.403 104.193 343.708C103.702 344.008 103.154 344.159 102.549 344.159C101.678 344.159 100.958 343.841 100.391 343.207V346.469H98.7026V337.373H100.391V338.16C100.954 337.53 101.673 337.214 102.549 337.214ZM102.213 342.521C102.738 342.521 103.171 342.347 103.514 342C103.861 341.649 104.035 341.211 104.035 340.687C104.035 340.162 103.861 339.726 103.514 339.379C103.171 339.028 102.738 338.852 102.213 338.852C101.692 338.852 101.259 339.028 100.912 339.379C100.565 339.73 100.391 340.166 100.391 340.687C100.391 341.207 100.565 341.643 100.912 341.994C101.259 342.345 101.692 342.521 102.213 342.521ZM115.01 337.214C115.759 337.214 116.358 337.439 116.806 337.887C117.259 338.336 117.485 338.935 117.485 339.684V344H115.79V340.191C115.79 339.785 115.672 339.461 115.435 339.22C115.202 338.975 114.889 338.852 114.496 338.852C114.081 338.852 113.744 338.977 113.486 339.227C113.228 339.476 113.099 339.806 113.099 340.217V344H111.411V340.191C111.411 339.789 111.29 339.466 111.049 339.22C110.812 338.975 110.494 338.852 110.097 338.852C109.686 338.852 109.352 338.979 109.094 339.233C108.836 339.483 108.707 339.811 108.707 340.217V344H107.018V337.373H108.707V338.059C109.206 337.496 109.86 337.214 110.668 337.214C111.129 337.214 111.538 337.31 111.893 337.5C112.253 337.686 112.538 337.951 112.75 338.293C113.296 337.574 114.049 337.214 115.01 337.214Z" fill="white"/>
<path d="M126.888 335.031H127.98V344H126.444V336.865L124.844 337.76L124.184 336.522L126.888 335.031ZM130.614 344.102C130.322 344.102 130.075 344.004 129.872 343.81C129.673 343.615 129.573 343.372 129.573 343.08C129.573 342.788 129.673 342.542 129.872 342.343C130.075 342.14 130.322 342.039 130.614 342.039C130.91 342.039 131.158 342.14 131.357 342.343C131.556 342.542 131.655 342.788 131.655 343.08C131.655 343.372 131.556 343.615 131.357 343.81C131.158 344.004 130.91 344.102 130.614 344.102ZM134.981 342.546H138.714V344H132.811V342.75L136.022 339.296C136.31 338.971 136.532 338.676 136.689 338.414C136.85 338.147 136.93 337.881 136.93 337.614C136.93 337.259 136.801 336.971 136.543 336.751C136.285 336.531 135.955 336.421 135.553 336.421C134.838 336.421 134.213 336.785 133.68 337.513L132.614 336.51C132.923 336.01 133.346 335.613 133.883 335.316C134.421 335.02 135.007 334.872 135.642 334.872C136.488 334.872 137.18 335.122 137.717 335.621C138.259 336.12 138.53 336.755 138.53 337.525C138.53 338.016 138.426 338.458 138.219 338.852C138.011 339.241 137.73 339.626 137.374 340.007L134.981 342.546ZM140.936 344.102C140.644 344.102 140.396 344.004 140.193 343.81C139.994 343.615 139.895 343.372 139.895 343.08C139.895 342.788 139.994 342.542 140.193 342.343C140.396 342.14 140.644 342.039 140.936 342.039C141.232 342.039 141.479 342.14 141.678 342.343C141.877 342.542 141.977 342.788 141.977 343.08C141.977 343.372 141.877 343.615 141.678 343.81C141.479 344.004 141.232 344.102 140.936 344.102ZM148.146 343.575C147.617 343.964 147.014 344.159 146.337 344.159C145.66 344.159 145.055 343.964 144.522 343.575C143.993 343.181 143.58 342.631 143.284 341.924C142.988 341.218 142.84 340.414 142.84 339.512C142.84 338.611 142.988 337.807 143.284 337.1C143.58 336.393 143.993 335.845 144.522 335.456C145.055 335.067 145.66 334.872 146.337 334.872C147.014 334.872 147.617 335.067 148.146 335.456C148.68 335.845 149.094 336.393 149.391 337.1C149.687 337.807 149.835 338.611 149.835 339.512C149.835 340.414 149.687 341.218 149.391 341.924C149.094 342.631 148.68 343.181 148.146 343.575ZM144.96 341.785C145.32 342.369 145.779 342.661 146.337 342.661C146.896 342.661 147.353 342.369 147.708 341.785C148.068 341.196 148.248 340.439 148.248 339.512C148.248 338.585 148.068 337.83 147.708 337.246C147.353 336.662 146.896 336.37 146.337 336.37C145.779 336.37 145.32 336.662 144.96 337.246C144.604 337.83 144.427 338.585 144.427 339.512C144.427 340.439 144.604 341.196 144.96 341.785Z" fill="white" fill-opacity="0.75"/>
<rect x="173" y="327" width="145" height="25" rx="5" fill="#482307" fill-opacity="0.25"/>
<path d="M193.798 337.214C194.547 337.214 195.146 337.439 195.594 337.887C196.047 338.336 196.273 338.935 196.273 339.684V344H194.579V340.191C194.579 339.785 194.46 339.461 194.223 339.22C193.99 338.975 193.677 338.852 193.284 338.852C192.869 338.852 192.533 338.977 192.274 339.227C192.016 339.476 191.887 339.806 191.887 340.217V344H190.199V340.191C190.199 339.789 190.078 339.466 189.837 339.22C189.6 338.975 189.283 338.852 188.885 338.852C188.474 338.852 188.14 338.979 187.882 339.233C187.624 339.483 187.495 339.811 187.495 340.217V344H185.806V337.373H187.495V338.059C187.994 337.496 188.648 337.214 189.456 337.214C189.917 337.214 190.326 337.31 190.681 337.5C191.041 337.686 191.326 337.951 191.538 338.293C192.084 337.574 192.837 337.214 193.798 337.214ZM199.377 336.091C199.174 336.294 198.922 336.396 198.622 336.396C198.322 336.396 198.068 336.294 197.86 336.091C197.657 335.888 197.556 335.638 197.556 335.342C197.556 335.046 197.657 334.796 197.86 334.593C198.068 334.39 198.322 334.288 198.622 334.288C198.922 334.288 199.174 334.39 199.377 334.593C199.585 334.796 199.688 335.046 199.688 335.342C199.688 335.638 199.585 335.888 199.377 336.091ZM197.778 344V337.373H199.466V344H197.778ZM204.874 337.214C205.657 337.214 206.284 337.449 206.753 337.919C207.227 338.384 207.464 339.007 207.464 339.785V344H205.77V340.331C205.77 339.882 205.636 339.525 205.37 339.258C205.107 338.987 204.756 338.852 204.316 338.852C203.855 338.852 203.48 338.992 203.192 339.271C202.909 339.546 202.767 339.91 202.767 340.363V344H201.079V337.373H202.767V338.109C203.3 337.513 204.003 337.214 204.874 337.214ZM211.032 342.362H214.136V344H208.664V342.762L211.679 339.011H208.715V337.373H214.047V338.604L211.032 342.362ZM217.037 336.091C216.833 336.294 216.582 336.396 216.281 336.396C215.981 336.396 215.727 336.294 215.52 336.091C215.316 335.888 215.215 335.638 215.215 335.342C215.215 335.046 215.316 334.796 215.52 334.593C215.727 334.39 215.981 334.288 216.281 334.288C216.582 334.288 216.833 334.39 217.037 334.593C217.244 334.796 217.348 335.046 217.348 335.342C217.348 335.638 217.244 335.888 217.037 336.091ZM215.437 344V337.373H217.125V344H215.437ZM222.584 337.214C223.19 337.214 223.738 337.367 224.228 337.671C224.724 337.972 225.111 338.389 225.39 338.922C225.669 339.451 225.809 340.039 225.809 340.687C225.809 341.334 225.669 341.924 225.39 342.458C225.111 342.986 224.724 343.403 224.228 343.708C223.738 344.008 223.19 344.159 222.584 344.159C221.713 344.159 220.993 343.841 220.426 343.207V346.469H218.738V337.373H220.426V338.16C220.989 337.53 221.708 337.214 222.584 337.214ZM222.248 342.521C222.773 342.521 223.207 342.347 223.549 342C223.896 341.649 224.07 341.211 224.07 340.687C224.07 340.162 223.896 339.726 223.549 339.379C223.207 339.028 222.773 338.852 222.248 338.852C221.728 338.852 221.294 339.028 220.947 339.379C220.6 339.73 220.426 340.166 220.426 340.687C220.426 341.207 220.6 341.643 220.947 341.994C221.294 342.345 221.728 342.521 222.248 342.521ZM230.9 337.214C231.505 337.214 232.053 337.367 232.544 337.671C233.039 337.972 233.426 338.389 233.706 338.922C233.985 339.451 234.124 340.039 234.124 340.687C234.124 341.334 233.985 341.924 233.706 342.458C233.426 342.986 233.039 343.403 232.544 343.708C232.053 344.008 231.505 344.159 230.9 344.159C230.028 344.159 229.309 343.841 228.742 343.207V346.469H227.053V337.373H228.742V338.16C229.304 337.53 230.024 337.214 230.9 337.214ZM230.563 342.521C231.088 342.521 231.522 342.347 231.865 342C232.212 341.649 232.385 341.211 232.385 340.687C232.385 340.162 232.212 339.726 231.865 339.379C231.522 339.028 231.088 338.852 230.563 338.852C230.043 338.852 229.609 339.028 229.262 339.379C228.915 339.73 228.742 340.166 228.742 340.687C228.742 341.207 228.915 341.643 229.262 341.994C229.609 342.345 230.043 342.521 230.563 342.521ZM241.97 340.699C241.97 340.911 241.957 341.11 241.932 341.296H236.797C236.915 341.715 237.142 342.047 237.476 342.292C237.81 342.538 238.217 342.661 238.695 342.661C239.08 342.661 239.433 342.584 239.755 342.432C240.076 342.276 240.33 342.079 240.517 341.842L241.646 342.832C241.295 343.251 240.859 343.577 240.339 343.81C239.823 344.042 239.258 344.159 238.644 344.159C237.95 344.159 237.322 344.006 236.759 343.702C236.196 343.397 235.756 342.978 235.438 342.445C235.121 341.907 234.962 341.313 234.962 340.661C234.962 340.018 235.115 339.434 235.419 338.909C235.728 338.38 236.151 337.965 236.689 337.665C237.231 337.365 237.829 337.214 238.485 337.214C239.48 337.214 240.309 337.547 240.974 338.211C241.638 338.871 241.97 339.701 241.97 340.699ZM239.545 339.068C239.241 338.818 238.883 338.693 238.473 338.693C238.062 338.693 237.705 338.818 237.4 339.068C237.095 339.313 236.89 339.643 236.784 340.058H240.167C240.062 339.643 239.854 339.313 239.545 339.068ZM248.172 334.637H249.86V344H248.172V343.207C247.592 343.841 246.873 344.159 246.014 344.159C245.091 344.159 244.321 343.826 243.703 343.162C243.085 342.498 242.776 341.673 242.776 340.687C242.776 339.701 243.085 338.875 243.703 338.211C244.321 337.547 245.091 337.214 246.014 337.214C246.877 337.214 247.596 337.53 248.172 338.16V334.637ZM246.337 342.521C246.862 342.521 247.298 342.345 247.645 341.994C247.996 341.643 248.172 341.207 248.172 340.687C248.172 340.166 247.996 339.73 247.645 339.379C247.298 339.028 246.862 338.852 246.337 338.852C245.817 338.852 245.383 339.028 245.036 339.379C244.689 339.73 244.516 340.166 244.516 340.687C244.516 341.207 244.689 341.643 245.036 341.994C245.383 342.345 245.817 342.521 246.337 342.521ZM256.709 344.159C255.635 344.159 254.704 343.82 253.916 343.143L254.735 342.026C255.298 342.517 255.943 342.762 256.671 342.762C257.018 342.762 257.3 342.707 257.516 342.597C257.736 342.487 257.846 342.335 257.846 342.14C257.846 342.034 257.814 341.941 257.75 341.861C257.691 341.78 257.594 341.711 257.458 341.651C257.323 341.592 257.192 341.543 257.065 341.505C256.942 341.467 256.769 341.423 256.544 341.372C256.392 341.338 256.271 341.311 256.183 341.29C256.094 341.268 255.971 341.237 255.814 341.194C255.662 341.148 255.537 341.105 255.44 341.067C255.347 341.029 255.235 340.979 255.103 340.915C254.972 340.847 254.864 340.78 254.78 340.712C254.699 340.644 254.613 340.562 254.52 340.464C254.431 340.367 254.359 340.263 254.304 340.153C254.253 340.043 254.211 339.916 254.177 339.772C254.143 339.629 254.126 339.474 254.126 339.309C254.126 338.856 254.251 338.469 254.5 338.147C254.75 337.826 255.074 337.591 255.472 337.443C255.874 337.291 256.326 337.214 256.83 337.214C257.808 337.214 258.665 337.504 259.401 338.084L258.582 339.214C258.04 338.808 257.469 338.604 256.868 338.604C256.563 338.604 256.314 338.653 256.119 338.75C255.924 338.848 255.827 338.99 255.827 339.176C255.827 339.282 255.857 339.375 255.916 339.455C255.975 339.531 256.073 339.599 256.208 339.658C256.343 339.713 256.475 339.76 256.602 339.798C256.728 339.832 256.904 339.872 257.128 339.918C257.323 339.961 257.48 339.997 257.598 340.026C257.717 340.056 257.871 340.103 258.061 340.166C258.252 340.229 258.406 340.293 258.525 340.356C258.648 340.42 258.779 340.507 258.918 340.617C259.062 340.722 259.174 340.837 259.255 340.959C259.335 341.082 259.403 341.232 259.458 341.41C259.517 341.588 259.547 341.78 259.547 341.988C259.547 342.441 259.42 342.834 259.166 343.168C258.912 343.503 258.574 343.752 258.15 343.917C257.727 344.078 257.247 344.159 256.709 344.159ZM262.283 336.091C262.08 336.294 261.828 336.396 261.527 336.396C261.227 336.396 260.973 336.294 260.766 336.091C260.562 335.888 260.461 335.638 260.461 335.342C260.461 335.046 260.562 334.796 260.766 334.593C260.973 334.39 261.227 334.288 261.527 334.288C261.828 334.288 262.08 334.39 262.283 334.593C262.49 334.796 262.594 335.046 262.594 335.342C262.594 335.638 262.49 335.888 262.283 336.091ZM260.683 344V337.373H262.372V344H260.683ZM266.04 342.362H269.145V344H263.673V342.762L266.688 339.011H263.724V337.373H269.056V338.604L266.04 342.362ZM276.781 340.699C276.781 340.911 276.768 341.11 276.743 341.296H271.607C271.726 341.715 271.952 342.047 272.287 342.292C272.621 342.538 273.027 342.661 273.505 342.661C273.89 342.661 274.244 342.584 274.565 342.432C274.887 342.276 275.141 342.079 275.327 341.842L276.457 342.832C276.106 343.251 275.67 343.577 275.149 343.81C274.633 344.042 274.068 344.159 273.455 344.159C272.761 344.159 272.132 344.006 271.569 343.702C271.006 343.397 270.566 342.978 270.249 342.445C269.932 341.907 269.773 341.313 269.773 340.661C269.773 340.018 269.925 339.434 270.23 338.909C270.539 338.38 270.962 337.965 271.499 337.665C272.041 337.365 272.64 337.214 273.296 337.214C274.29 337.214 275.12 337.547 275.784 338.211C276.449 338.871 276.781 339.701 276.781 340.699ZM274.356 339.068C274.051 338.818 273.694 338.693 273.283 338.693C272.873 338.693 272.515 338.818 272.21 339.068C271.906 339.313 271.7 339.643 271.595 340.058H274.978C274.872 339.643 274.665 339.313 274.356 339.068Z" fill="white"/>
<path d="M288.446 339.296C288.916 339.508 289.284 339.811 289.551 340.204C289.822 340.598 289.957 341.044 289.957 341.543C289.957 342.305 289.648 342.931 289.03 343.422C288.417 343.913 287.623 344.159 286.65 344.159C286.015 344.159 285.41 344.047 284.834 343.822C284.259 343.598 283.776 343.285 283.387 342.883L284.289 341.753C284.564 342.041 284.902 342.265 285.304 342.426C285.706 342.582 286.121 342.661 286.548 342.661C287.082 342.661 287.517 342.536 287.856 342.286C288.199 342.032 288.37 341.711 288.37 341.321C288.37 340.932 288.205 340.612 287.875 340.363C287.549 340.109 287.132 339.982 286.624 339.982H285.317V338.643H286.624C287.065 338.643 287.429 338.537 287.716 338.325C288.004 338.114 288.148 337.843 288.148 337.513C288.148 337.183 287.991 336.91 287.678 336.694C287.365 336.478 286.963 336.37 286.472 336.37C286.104 336.37 285.746 336.436 285.399 336.567C285.057 336.698 284.773 336.88 284.549 337.113L283.717 335.989C284.068 335.638 284.506 335.365 285.031 335.17C285.556 334.972 286.102 334.872 286.669 334.872C287.57 334.872 288.307 335.101 288.878 335.558C289.449 336.01 289.735 336.588 289.735 337.291C289.735 337.722 289.621 338.114 289.392 338.465C289.164 338.816 288.848 339.093 288.446 339.296ZM295.575 344L293.467 341.556L292.769 342.312V344H291.309V334.637H292.769V340.363L295.511 337.373H297.409L294.496 340.464L297.498 344H295.575ZM302.113 337.214C302.722 337.214 303.276 337.367 303.776 337.671C304.275 337.972 304.667 338.389 304.95 338.922C305.234 339.451 305.375 340.039 305.375 340.687C305.375 341.334 305.234 341.924 304.95 342.458C304.667 342.986 304.275 343.403 303.776 343.708C303.276 344.008 302.722 344.159 302.113 344.159C301.63 344.159 301.19 344.061 300.792 343.867C300.395 343.672 300.056 343.395 299.777 343.035V344H298.317V334.637H299.777V338.332C300.052 337.976 300.388 337.701 300.786 337.506C301.188 337.312 301.63 337.214 302.113 337.214ZM300.361 342.159C300.754 342.553 301.243 342.75 301.827 342.75C302.411 342.75 302.898 342.553 303.287 342.159C303.676 341.761 303.871 341.271 303.871 340.687C303.871 340.103 303.676 339.612 303.287 339.214C302.898 338.816 302.411 338.617 301.827 338.617C301.243 338.617 300.754 338.816 300.361 339.214C299.971 339.612 299.777 340.103 299.777 340.687C299.777 341.271 299.971 341.761 300.361 342.159Z" fill="white" fill-opacity="0.75"/>
<rect x="0.470428" y="125.998" width="120" height="50" rx="20" transform="rotate(-20 0.470428 125.998)" fill="#E15549" fill-opacity="0.5"/>
<rect x="62.2159" y="169.754" width="180" height="50" rx="20" transform="rotate(-20 62.2159 169.754)" fill="#E15549" fill-opacity="0.75"/>
<rect x="686.934" y="50" width="120" height="50" rx="20" transform="rotate(20 686.934 50)" fill="#E15549" fill-opacity="0.95"/>
<rect x="737.217" y="135.332" width="97" height="20" rx="10" transform="rotate(20 737.217 135.332)" fill="#E15549"/>
<rect x="728.667" y="158.825" width="71" height="20" rx="10" transform="rotate(20 728.667 158.825)" fill="#E15549" fill-opacity="0.5"/>
<defs>
<linearGradient id="paint0_linear_2_236" x1="425" y1="0" x2="425" y2="804.661" gradientUnits="userSpaceOnUse">
<stop stop-color="#FFDA92" stop-opacity="0.33"/>
<stop offset="1" stop-color="white" stop-opacity="0"/>
</linearGradient>
<linearGradient id="paint1_linear_2_236" x1="425" y1="300" x2="425" y2="514.576" gradientUnits="userSpaceOnUse">
<stop stop-color="#A97C24" stop-opacity="0.15"/>
<stop offset="1" stop-color="white" stop-opacity="0"/>
</linearGradient>
</defs>
</svg>
